<svg viewBox="0 0 200 200" xmlns="http://www.w3.org/2000/svg">
    <!-- Cuerpo -->
    <ellipse cx="100" cy="120" rx="60" ry="40" fill="#808080"/>
    
    <!-- Cabeza -->
    <circle cx="100" cy="80" r="35" fill="#808080"/>
    
    <!-- Orejas -->
    <ellipse cx="70" cy="55" rx="15" ry="20" fill="#808080" transform="rotate(-20)"/>
    <ellipse cx="130" cy="55" rx="15" ry="20" fill="#808080" transform="rotate(20)"/>
    <ellipse cx="70" cy="55" rx="10" ry="15" fill="#FFC0CB" transform="rotate(-20)"/>
    <ellipse cx="130" cy="55" rx="10" ry="15" fill="#FFC0CB" transform="rotate(20)"/>
    
    <!-- Ojos -->
    <circle cx="85" cy="75" r="5" fill="black"/>
    <circle cx="115" cy="75" r="5" fill="black"/>
    <circle cx="83" cy="73" r="2" fill="white"/>
    <circle cx="113" cy="73" r="2" fill="white"/>
    
    <!-- Nariz -->
    <ellipse cx="100" cy="85" rx="7" ry="5" fill="#FFB6C1"/>
    
    <!-- Bigotes -->
    <line x1="65" y1="85" x2="90" y2="88" stroke="black" stroke-width="1"/>
    <line x1="65" y1="90" x2="90" y2="90" stroke="black" stroke-width="1"/>
    <line x1="65" y1="95" x2="90" y2="92" stroke="black" stroke-width="1"/>
    <line x1="110" y1="88" x2="135" y2="85" stroke="black" stroke-width="1"/>
    <line x1="110" y1="90" x2="135" y2="90" stroke="black" stroke-width="1"/>
    <line x1="110" y1="92" x2="135" y2="95" stroke="black" stroke-width="1"/>
    
    <!-- Cola -->
    <path d="M 40,120 Q 20,140 30,160" stroke="#808080" stroke-width="8" fill="none"/>
    
   
</svg>